HIERARCHY
ROOT Pelvis
{
	OFFSET 0.000000 0.000000 0.000000
	CHANNELS 6 Xposition Yposition Zposition Xrotation Yrotation Zrotation
	JOINT LeftUpLeg_virtual
	{
		OFFSET 0.000000 0.000000 0.000000
		CHANNELS 3 Xrotation Yrotation Zrotation
		JOINT LeftUpLeg
		{
			OFFSET 18.735201 -5.666702 -4.541200
			CHANNELS 3 Xrotation Yrotation Zrotation
			JOINT LeftLeg
			{
				OFFSET -0.021200 -31.938179 0.493100
				CHANNELS 3 Xrotation Yrotation Zrotation
				JOINT LeftFoot
				{
					OFFSET 0.021200 -31.938179 -4.336299
					CHANNELS 3 Xrotation Yrotation Zrotation
					JOINT LeftToeBase
					{
						OFFSET 0.943001 -26.722000 15.023500
						CHANNELS 3 Xrotation Yrotation Zrotation
						End Site
						{
							OFFSET 0 0 0
						}
					}
				}
			}
		}
	}
	JOINT RightUpLeg_virtual
	{
		OFFSET 0.000000 0.000000 0.000000
		CHANNELS 3 Xrotation Yrotation Zrotation
		JOINT RightUpLeg
		{
			OFFSET -18.735201 -5.666702 -4.541200
			CHANNELS 3 Xrotation Yrotation Zrotation
			JOINT RightLeg
			{
				OFFSET 0.018946 -31.938133 0.493100
				CHANNELS 3 Xrotation Yrotation Zrotation
				JOINT RightFoot
				{
					OFFSET -0.018946 -31.938126 -4.336299
					CHANNELS 3 Xrotation Yrotation Zrotation
					JOINT RightToeBase
					{
						OFFSET -0.943001 -26.722004 15.023500
						CHANNELS 3 Xrotation Yrotation Zrotation
						End Site
						{
							OFFSET 0 0 0
						}
					}
				}
			}
		}
	}
	JOINT Hips_virtual
	{
		OFFSET 0.000000 0.000000 0.000000
		CHANNELS 3 Xrotation Yrotation Zrotation
		JOINT Hips
		{
			OFFSET -0.000000 -0.000000 -0.000000
			CHANNELS 3 Xrotation Yrotation Zrotation
			JOINT Spine
			{
				OFFSET 0.000000 10.199997 -0.299500
				CHANNELS 3 Xrotation Yrotation Zrotation
				JOINT Spine1
				{
					OFFSET 0.000000 11.900002 -1.516600
					CHANNELS 3 Xrotation Yrotation Zrotation
					JOINT Spine2
					{
						OFFSET 0.000000 13.600006 -2.842500
						CHANNELS 3 Xrotation Yrotation Zrotation
						JOINT Neck_virtual
						{
							OFFSET 0.000000 0.000000 0.000000
							CHANNELS 3 Xrotation Yrotation Zrotation
							JOINT Neck
							{
								OFFSET 0.000000 9.624100 -2.890100
								CHANNELS 3 Xrotation Yrotation Zrotation
								JOINT Head
								{
									OFFSET 0.000000 14.068802 -1.351900
									CHANNELS 3 Xrotation Yrotation Zrotation
									End Site
									{
										OFFSET 0 0 0
									}
								}
							}
						}
						JOINT LeftShoulder_virtual
						{
							OFFSET 0.000000 0.000000 0.000000
							CHANNELS 3 Xrotation Yrotation Zrotation
							JOINT LeftShoulder
							{
								OFFSET 15.263000 10.923401 -0.547700
								CHANNELS 3 Xrotation Yrotation Zrotation
								JOINT LeftArm
								{
									OFFSET 25.438599 -2.830597 -13.032500
									CHANNELS 3 Xrotation Yrotation Zrotation
									JOINT LeftForeArm
									{
										OFFSET 29.960503 0.000000 0.000000
										CHANNELS 3 Xrotation Yrotation Zrotation
										JOINT LeftHand
										{
											OFFSET 27.849251 0.000000 0.000000
											CHANNELS 3 Xrotation Yrotation Zrotation
											End Site
											{
												OFFSET 0 0 0
											}
										}
									}
								}
							}
						}
						JOINT RightShoulder_virtual
						{
							OFFSET 0.000000 0.000000 0.000000
							CHANNELS 3 Xrotation Yrotation Zrotation
							JOINT RightShoulder
							{
								OFFSET -15.263000 10.923401 -0.547700
								CHANNELS 3 Xrotation Yrotation Zrotation
								JOINT RightArm
								{
									OFFSET -25.438599 -2.830597 -13.032500
									CHANNELS 3 Xrotation Yrotation Zrotation
									JOINT RightForeArm
									{
										OFFSET -29.960503 0.000000 0.000000
										CHANNELS 3 Xrotation Yrotation Zrotation
										JOINT RightHand
										{
											OFFSET -27.849251 0.000000 0.000000
											CHANNELS 3 Xrotation Yrotation Zrotation
											End Site
											{
												OFFSET 0 0 0
											}
										}
									}
								}
							}
						}
					}
				}
			}
		}
	}
}
MOTION
Frames: 12
Frame Time: 0.03333333
-1.346318 91.003136 3.302174 0.000000 0.000000 0.000000 3.117640 -7.371740 -2.182034 -38.611432 9.127052 15.117259 37.442704 3.848967 0.735254 -11.127201 3.447564 -1.572307 0.000000 0.000000 0.000000 4.941965 -26.414669 3.129289 -26.144682 -12.430633 -14.713440 34.911976 0.435347 -3.083411 -15.226759 -1.786447 6.455560 0.000000 0.000000 0.000000 -0.575602 -11.989267 0.329311 0.238098 -8.436868 -1.785734 4.001334 -0.923145 0.926338 1.246682 -0.432264 -0.055714 0.000000 0.000000 0.000000 1.437297 0.521975 0.549502 -1.109682 0.623622 0.546229 0.000000 0.000000 0.000000 1.405126 0.566183 0.858053 -0.004763 -2.314590 0.479785 -39.837714 -15.002365 -54.047099 -20.267519 -70.005600 -16.633877 0.000000 0.000000 0.000000 0.812956 -1.522936 0.124355 -0.448322 1.860995 5.104769 -26.363022 44.256235 50.421723 176.825429 77.105124 -176.257198 0.000000 0.000000 0.000000 
-0.528382 91.057655 3.014166 0.000000 0.000000 0.000000 2.754939 -6.082993 -1.890813 -39.424603 9.250461 15.736389 37.350046 3.737556 0.958657 -11.212392 3.228019 -1.373287 0.000000 0.000000 0.000000 4.958306 -27.048077 3.231924 -26.236736 -12.642508 -14.690011 34.337318 0.690444 -3.329693 -15.759051 -1.436671 6.111010 0.000000 0.000000 0.000000 -1.339894 -12.773038 -0.070012 2.849154 -7.455764 -0.117144 4.511891 -1.430333 0.561785 1.593705 -0.377542 0.097833 0.000000 0.000000 0.000000 1.886661 0.365392 0.380829 -0.900452 0.713603 0.609885 0.000000 0.000000 0.000000 1.038926 0.391870 0.867238 0.583462 -1.421410 0.820458 -40.641313 -15.582583 -55.657388 -20.834290 -71.478804 -18.024888 0.000000 0.000000 0.000000 0.829225 -1.937056 0.265607 0.080997 0.436610 6.189928 -25.417955 47.960557 48.820358 177.760700 72.829269 -177.132951 0.000000 0.000000 0.000000 
-0.534483 91.324287 2.870705 0.000000 0.000000 0.000000 2.200635 -5.412570 -2.205789 -40.112673 9.410828 15.527991 37.199956 3.638579 1.389217 -11.510871 2.930193 -0.850928 0.000000 0.000000 0.000000 4.819017 -28.331587 3.021899 -26.358890 -12.906555 -15.004242 34.044156 0.642704 -3.699333 -16.032790 -1.278085 5.394783 0.000000 0.000000 0.000000 -0.080010 -13.481538 0.987153 -0.710650 -8.910655 -1.049743 6.073318 -1.700514 0.116285 1.480532 -0.551638 0.385600 0.000000 0.000000 0.000000 2.591417 0.234530 0.397799 -0.756308 0.719001 0.558444 0.000000 0.000000 0.000000 0.979591 0.740331 1.124674 0.578889 -1.432120 1.245895 -41.666159 -16.916446 -54.379917 -19.028313 -70.898026 -15.889930 0.000000 0.000000 0.000000 0.799292 -2.116892 0.316826 0.478401 -0.826377 6.161673 -23.092405 49.515395 46.650236 176.384362 72.032138 -176.393610 0.000000 0.000000 0.000000 
-0.897048 91.379944 3.221693 0.000000 0.000000 0.000000 2.544981 -3.499004 -2.215713 -40.082716 9.948097 15.875991 38.946958 3.274518 1.331636 -10.188695 2.550866 -1.197384 0.000000 0.000000 0.000000 3.960183 -28.651879 2.909921 -27.318969 -12.846523 -14.880556 35.205039 0.512289 -3.835097 -15.135619 -1.250737 5.085241 0.000000 0.000000 0.000000 -1.046901 -12.147496 0.331276 2.101907 -8.733962 -0.825768 4.785408 -2.227091 0.305615 1.545975 -0.379611 -0.021628 0.000000 0.000000 0.000000 2.061533 0.193040 0.289278 -0.932964 0.724975 0.512102 0.000000 0.000000 0.000000 1.059025 0.723251 0.842213 0.249426 0.020442 1.229522 -43.109545 -16.936549 -55.306869 -22.888271 -72.899039 -19.745382 0.000000 0.000000 0.000000 0.658932 -2.306148 0.290974 0.233370 -2.045283 6.867657 -24.575613 50.215363 47.001335 177.561532 69.751634 -177.406555 0.000000 0.000000 0.000000 
-0.856436 91.038025 4.121675 0.000000 0.000000 0.000000 1.141193 -5.134139 -3.348474 -41.224201 9.684037 14.447399 39.486700 3.331191 1.668615 -9.738052 2.430652 -0.654778 0.000000 0.000000 0.000000 3.908641 -29.482781 3.018440 -27.425397 -13.108807 -14.785230 34.306203 0.290379 -3.724848 -15.788119 -1.565054 5.038003 0.000000 0.000000 0.000000 -0.266447 -10.992400 0.360051 -1.525455 -9.182003 -0.866941 6.150734 -1.797676 -0.305209 1.427271 -0.371736 0.117123 0.000000 0.000000 0.000000 2.338503 0.262557 0.145011 -1.027659 0.935500 0.504845 0.000000 0.000000 0.000000 1.033344 0.587027 0.852545 0.048210 0.619888 1.118404 -45.421858 -17.313292 -55.341522 -25.993938 -72.960258 -22.645463 0.000000 0.000000 0.000000 0.514288 -2.464368 0.398629 0.578717 -1.733938 6.098186 -23.652127 50.304746 44.560936 178.608436 68.555626 -178.733592 0.000000 0.000000 0.000000 
-1.165541 91.297432 4.275061 0.000000 0.000000 0.000000 0.809656 -3.880073 -3.272628 -41.657979 9.854360 14.661940 40.354158 3.606207 1.858161 -9.037530 2.588900 -0.196123 0.000000 0.000000 0.000000 4.307150 -28.556522 3.124345 -26.820671 -12.927712 -14.603696 35.188670 0.616728 -3.487372 -15.019951 -1.308222 5.631045 0.000000 0.000000 0.000000 -2.558230 -14.308869 0.279305 -1.814617 -7.963543 -1.067128 4.462385 -2.051130 -0.323999 1.619865 0.045236 0.131098 0.000000 0.000000 0.000000 1.618417 0.747318 0.237101 -0.859811 0.998138 0.611756 0.000000 0.000000 0.000000 0.718027 0.671078 0.639882 0.399448 0.091125 1.485999 -42.765822 -16.748537 -52.993320 -19.140360 -71.390353 -16.410484 0.000000 0.000000 0.000000 0.225044 -2.466104 0.422536 0.385891 -2.214902 5.938805 -27.081369 52.801406 46.498900 177.819904 68.241253 -177.408536 0.000000 0.000000 0.000000 
-1.200734 91.201767 4.189665 0.000000 0.000000 0.000000 0.598633 -4.147301 -3.924319 -42.211631 10.027894 14.181778 40.449395 3.729223 1.739539 -9.304257 2.786792 -0.373786 0.000000 0.000000 0.000000 4.410051 -29.576936 3.217050 -27.069411 -13.147158 -14.723707 35.615113 0.651724 -3.401629 -14.805627 -1.303213 5.792000 0.000000 0.000000 0.000000 -1.926510 -13.698201 0.473656 -0.898502 -9.996300 0.001837 4.053052 -1.246280 -0.663445 1.942374 -0.386254 -0.089732 0.000000 0.000000 0.000000 1.597674 0.710815 0.185285 -0.925328 0.927101 0.569486 0.000000 0.000000 0.000000 0.213868 0.664426 0.425020 -0.014662 -1.164991 0.934939 -44.091275 -16.022478 -53.381839 -22.656251 -71.668526 -19.962563 0.000000 0.000000 0.000000 0.324464 -2.630309 0.375581 0.660876 -3.574976 5.720521 -27.587505 52.722217 45.645242 178.209635 69.336378 -177.897946 0.000000 0.000000 0.000000 
-1.077726 90.641945 3.616335 0.000000 0.000000 0.000000 0.755743 -4.415833 -4.062652 -42.028230 10.040706 14.017582 39.716273 3.946873 2.105160 -9.897518 2.862149 0.272223 0.000000 0.000000 0.000000 4.035690 -30.250252 2.914634 -27.382269 -13.284353 -14.940229 36.380166 0.497424 -2.982469 -14.205367 -1.589799 6.357798 0.000000 0.000000 0.000000 -1.974357 -15.677985 0.378448 1.251688 -6.961001 0.611906 3.981201 -1.353669 -0.125517 1.181944 -0.365457 -0.135864 0.000000 0.000000 0.000000 1.388367 0.773160 0.139210 -1.049500 0.924274 0.658058 0.000000 0.000000 0.000000 0.376891 0.497084 0.477773 -0.161414 -0.607983 1.513531 -44.604427 -16.788047 -52.861013 -24.975688 -74.012968 -21.812009 0.000000 0.000000 0.000000 0.269660 -2.606803 0.202241 -0.063193 -3.948918 5.642996 -30.405765 51.300086 46.116143 -179.876338 67.496326 179.576246 0.000000 0.000000 0.000000 
-1.290474 91.154015 3.045443 0.000000 0.000000 0.000000 0.546600 -3.608537 -4.387045 -42.263810 10.305431 13.754206 39.549425 4.232208 2.305952 -10.132709 3.042365 0.720310 0.000000 0.000000 0.000000 4.328715 -30.101047 3.266488 -26.941104 -13.395230 -14.572038 35.218204 0.638509 -3.113520 -15.054343 -1.436719 6.166001 0.000000 0.000000 0.000000 -1.327104 -15.353565 0.890844 0.522992 -7.781981 0.470767 4.131121 -1.347428 -0.231754 1.352253 -0.276043 0.045549 0.000000 0.000000 0.000000 1.420367 0.882903 0.146162 -0.964538 0.883038 0.644237 0.000000 0.000000 0.000000 0.269172 0.654327 0.508560 -0.011919 -0.951091 1.868439 -45.720187 -16.328812 -52.609204 -25.660411 -73.402991 -22.480507 0.000000 0.000000 0.000000 0.192517 -2.602406 0.286075 0.300316 -3.659378 5.529327 -31.504077 53.307741 47.762905 -179.837392 68.063491 -179.983271 0.000000 0.000000 0.000000 
-1.124840 91.499931 3.269531 0.000000 0.000000 0.000000 0.464626 -2.794155 -4.491242 -42.519806 10.511228 13.782077 39.075123 4.250650 2.309130 -10.377627 3.099883 0.732270 0.000000 0.000000 0.000000 4.088407 -29.860996 3.179406 -27.190483 -13.271284 -14.548632 35.515150 0.859310 -3.160032 -14.863181 -1.177824 6.239766 0.000000 0.000000 0.000000 -1.248835 -15.390564 1.215602 0.627846 -8.027354 0.536804 4.525609 -1.411493 -0.362805 1.474660 -0.287343 -0.014095 0.000000 0.000000 0.000000 1.637189 0.894425 0.078067 -0.821527 0.896824 0.542591 0.000000 0.000000 0.000000 0.302974 0.490684 0.536639 0.159461 -1.152013 1.236061 -45.377745 -15.701594 -53.044137 -27.483107 -73.348691 -24.601459 0.000000 0.000000 0.000000 0.382720 -2.640764 0.486823 0.242820 -4.043949 5.466975 -31.596889 52.101267 48.015345 -179.578842 68.740417 -179.990743 0.000000 0.000000 0.000000 
-1.248070 91.544083 3.331636 0.000000 0.000000 0.000000 0.318330 -1.976964 -4.733917 -42.770351 10.761516 13.636520 38.895287 4.129141 2.154103 -10.499614 3.080877 0.364705 0.000000 0.000000 0.000000 3.873532 -29.839949 2.913953 -27.426666 -13.168327 -14.819407 35.339832 0.850843 -3.284713 -15.067438 -1.129138 6.023096 0.000000 0.000000 0.000000 -1.308828 -14.318004 1.116014 0.311812 -8.561400 0.325702 4.938320 -1.305060 -0.613360 1.583781 -0.224138 0.015498 0.000000 0.000000 0.000000 1.646254 0.949275 0.073421 -0.734346 0.879101 0.587724 0.000000 0.000000 0.000000 0.301125 0.515494 0.542115 0.018929 -1.046768 1.150341 -46.615235 -14.598124 -53.573490 -29.468025 -73.898036 -26.556920 0.000000 0.000000 0.000000 0.379724 -2.587902 0.458044 0.537047 -4.180421 5.864389 -30.141041 53.134907 47.347524 -179.933534 69.125613 -179.407008 0.000000 0.000000 0.000000 
-1.329611 91.338531 3.722708 0.000000 0.000000 0.000000 0.593694 -1.316133 -4.545180 -42.528511 10.894230 13.897715 39.470745 4.155820 2.086364 -9.970390 3.126988 0.256828 0.000000 0.000000 0.000000 3.765501 -29.113162 2.611716 -27.252653 -12.916699 -15.017392 35.463753 1.071015 -3.143452 -14.968628 -0.980429 6.403983 0.000000 0.000000 0.000000 -1.354584 -14.556045 1.303474 0.615691 -5.626194 -0.153379 5.031268 -1.069800 -0.562071 1.563978 -0.171679 0.000609 0.000000 0.000000 0.000000 1.833745 1.154939 0.057979 -0.734406 0.892033 0.592247 0.000000 0.000000 0.000000 0.539087 0.642499 0.737941 0.032956 -1.137707 1.437257 -45.308709 -14.969405 -53.224403 -29.280362 -73.955000 -26.270081 0.000000 0.000000 0.000000 0.727247 -2.417459 0.423378 0.485955 -3.827842 5.556210 -31.262565 53.143192 47.902934 -179.935788 69.030618 -179.499858 0.000000 0.000000 0.000000 
